<svg width="46" height="47" viewBox="0 0 46 47" fill="none" xmlns="http://www.w3.org/2000/svg">
<path d="M39.3513 28.2007C39.7953 28.8393 40.4319 29.3195 41.1683 29.5711C41.9046 29.8227 42.7022 29.8326 43.4446 29.5993C44.187 29.3661 44.8353 28.9019 45.295 28.2745C45.7547 27.6471 46.0017 26.8893 46 26.1118C46.0017 25.3342 45.7547 24.5765 45.295 23.9491C44.8353 23.3217 44.187 22.8575 43.4446 22.6242C42.7022 22.391 41.9046 22.4009 41.1683 22.6525C40.4319 22.9041 39.7953 23.3842 39.3513 24.0228H37.6369C37.6369 20.7432 36.5915 17.756 34.7098 15.2702L37.5115 12.471C38.6823 12.6799 39.874 12.3457 40.7731 11.4892C42.1739 10.0478 42.1739 7.72909 40.7731 6.26683C39.3304 4.86724 37.0097 4.86724 35.5462 6.26683C34.6889 7.16508 34.3544 8.35577 34.5635 9.52558L31.7619 12.3248C29.8384 10.8834 27.5803 9.92248 25.0923 9.56736V6.64284C25.7315 6.19926 26.212 5.56321 26.4639 4.82749C26.7157 4.09178 26.7256 3.29491 26.4921 2.55317C26.2587 1.81143 25.7941 1.16364 25.1661 0.704342C24.5382 0.245039 23.7798 -0.00174271 23.0016 9.26417e-06C22.2233 -0.00174271 21.4649 0.245039 20.837 0.704342C20.209 1.16364 19.7444 1.81143 19.511 2.55317C19.2775 3.29491 19.2874 4.09178 19.5392 4.82749C19.7911 5.56321 20.2716 6.19926 20.9108 6.64284V9.56736C19.0291 9.83892 17.2729 10.4447 15.6839 11.3639L13.3631 8.04243C13.7604 6.95618 13.6558 5.70282 12.945 4.70013C12.6694 4.30605 12.3187 3.97015 11.913 3.71166C11.5073 3.45317 11.0546 3.27717 10.5807 3.19373C10.1068 3.1103 9.62117 3.12107 9.15148 3.22542C8.68178 3.32978 8.23731 3.52567 7.84349 3.80188C6.19178 4.9508 5.77363 7.22775 6.94446 8.87801C7.65532 9.90159 8.78434 10.4447 9.93426 10.4447L12.4014 13.9541C11.5023 14.8524 10.7915 15.8551 10.1851 16.9622C9.52606 16.7049 8.8067 16.643 8.11326 16.7838C7.41983 16.9246 6.78173 17.2621 6.27542 17.756C4.8746 19.2183 4.8746 21.5161 6.27542 22.9784C6.88174 23.5424 7.61351 23.8766 8.36618 24.0228C8.36618 25.1509 8.51254 26.2371 8.74252 27.2816L6.00361 28.0127C5.12549 27.2816 3.91285 26.9682 2.7002 27.2816C1.76309 27.5364 0.965683 28.1528 0.483406 28.9951C0.00112918 29.8373 -0.126513 30.8365 0.12856 31.7728C0.383633 32.7091 1.00053 33.5058 1.84353 33.9877C2.68653 34.4695 3.68659 34.5971 4.62371 34.3422C5.81545 34.008 6.71448 33.1306 7.09081 32.0444L10.2479 31.1879C11.1887 32.8382 12.4432 34.3004 13.9067 35.512L11.6069 39.6899C10.4569 39.857 9.41156 40.5046 8.80524 41.6117C8.57736 42.0342 8.43498 42.4973 8.38625 42.9748C8.33752 43.4522 8.38338 43.9346 8.52123 44.3943C8.65907 44.854 8.88619 45.2821 9.18962 45.6541C9.49306 46.0262 9.86686 46.3348 10.2897 46.5625C10.7125 46.7902 11.1761 46.9325 11.6539 46.9811C12.1318 47.0298 12.6146 46.984 13.0747 46.8463C13.5348 46.7086 13.9633 46.4816 14.3356 46.1785C14.708 45.8753 15.0169 45.5018 15.2448 45.0794C15.8302 43.9931 15.8093 42.7398 15.2866 41.7162L17.5237 37.601C19.2173 38.2694 21.0571 38.6454 23.0016 38.6454H23.3779C23.1061 39.1886 23.0016 39.8152 23.0016 40.4837C23.1688 42.51 24.9251 44.014 26.9322 43.8678C28.9393 43.7216 30.4656 41.946 30.3192 39.9406C30.2356 38.8961 29.7129 37.977 28.9602 37.3712C29.9429 36.9325 30.8837 36.3685 31.7619 35.7209L36.6543 40.609C36.4452 41.7788 36.7797 42.9695 37.6369 43.8678C39.1005 45.2674 41.4003 45.2674 42.8638 43.8678C44.3274 42.4682 44.2647 40.1077 42.8638 38.6454C41.9648 37.789 40.7731 37.4547 39.6022 37.6636L34.7098 32.7755C35.7343 31.4177 36.5288 29.8719 37.0306 28.2007H39.3513ZM19.8654 24.0228C18.1301 24.0228 16.7293 22.6232 16.7293 20.8894C16.7293 19.1556 18.1301 17.756 19.8654 17.756C21.6007 17.756 23.0016 19.1556 23.0016 20.8894C23.0016 22.6232 21.6007 24.0228 19.8654 24.0228ZM27.1831 30.2897C26.0332 30.2897 25.0923 29.3496 25.0923 28.2007C25.0923 27.0518 26.0332 26.1118 27.1831 26.1118C28.333 26.1118 29.2739 27.0518 29.2739 28.2007C29.2739 29.3496 28.333 30.2897 27.1831 30.2897Z" fill="#F1F1F1"/>
</svg>
