<?xml version="1.0" encoding="utf-8"?>
<!-- Generator: Adobe Illustrator 18.0.0, SVG Export Plug-In . SVG Version: 6.00 Build 0)  -->
<!DOCTYPE svg PUBLIC "-//W3C//DTD SVG 1.0//EN" "http://www.w3.org/TR/2001/REC-SVG-20010904/DTD/svg10.dtd">
<svg version="1.0" id="Capa_1" xmlns="http://www.w3.org/2000/svg" xmlns:xlink="http://www.w3.org/1999/xlink" x="0px" y="0px"
	 viewBox="55.7 0 27.2 47" enable-background="new 55.7 0 27.2 47" xml:space="preserve">
<path fill="#23BDEA" d="M82.8,30.3c-1.1,0-2.1-0.9-2.1-2.1c0-1.1,0.9-2.1,2.1-2.1V10c-0.7-0.2-1.4-0.4-2.1-0.5V6.6
	c0.6-0.4,1.1-1.1,1.4-1.8c0.3-0.7,0.3-1.5,0-2.3c-0.2-0.7-0.7-1.4-1.3-1.8C80.2,0.2,79.4,0,78.7,0c-0.8,0-1.5,0.2-2.2,0.7
	c-0.6,0.5-1.1,1.1-1.3,1.8c-0.2,0.7-0.2,1.5,0,2.3c0.3,0.7,0.7,1.4,1.4,1.8v2.9c-1.9,0.3-3.6,0.9-5.2,1.8L69,8
	c0.4-1.1,0.3-2.3-0.4-3.3c-0.3-0.4-0.6-0.7-1-1s-0.9-0.4-1.3-0.5c-0.5-0.1-1-0.1-1.4,0c-0.5,0.1-0.9,0.3-1.3,0.6
	c-1.7,1.1-2.1,3.4-0.9,5.1c0.7,1,1.8,1.6,3,1.6l2.5,3.5c-0.9,0.9-1.6,1.9-2.2,3c-0.7-0.3-1.4-0.3-2.1-0.2s-1.3,0.5-1.8,1
	c-1.4,1.5-1.4,3.8,0,5.2c0.6,0.6,1.3,0.9,2.1,1c0,1.1,0.1,2.2,0.4,3.3L61.7,28c-0.9-0.7-2.1-1-3.3-0.7c-0.9,0.3-1.7,0.9-2.2,1.7
	c-0.5,0.8-0.6,1.8-0.4,2.8c0.3,0.9,0.9,1.7,1.7,2.2c0.8,0.5,1.8,0.6,2.8,0.4c1.2-0.3,2.1-1.2,2.5-2.3l3.2-0.9
	c0.9,1.7,2.2,3.1,3.7,4.3l-2.3,4.2c-1.2,0.2-2.2,0.8-2.8,1.9c-0.2,0.4-0.4,0.9-0.4,1.4c0,0.5,0,1,0.1,1.4c0.1,0.5,0.4,0.9,0.7,1.3
	c0.3,0.4,0.7,0.7,1.1,0.9c0.4,0.2,0.9,0.4,1.4,0.4c0.5,0,1,0,1.4-0.1s0.9-0.4,1.3-0.7c0.4-0.3,0.7-0.7,0.9-1.1
	c0.6-1.1,0.6-2.3,0-3.4l2.2-4.1c1.7,0.7,3.5,1,5.5,1H79c-0.3,0.5-0.4,1.2-0.4,1.8c0.2,2,1.9,3.5,3.9,3.4c0.1,0,0.2,0,0.2,0V30.3z
	 M75.5,24c-1.7,0-3.1-1.4-3.1-3.1c0-1.7,1.4-3.1,3.1-3.1s3.1,1.4,3.1,3.1C78.7,22.6,77.3,24,75.5,24z"/>
</svg>
