<?xml version="1.0" encoding="utf-8"?>
<!-- Generator: Adobe Illustrator 18.0.0, SVG Export Plug-In . SVG Version: 6.00 Build 0)  -->
<!DOCTYPE svg PUBLIC "-//W3C//DTD SVG 1.0//EN" "http://www.w3.org/TR/2001/REC-SVG-20010904/DTD/svg10.dtd">
<svg version="1.0" id="Capa_1" xmlns="http://www.w3.org/2000/svg" xmlns:xlink="http://www.w3.org/1999/xlink" x="0px" y="0px"
	 viewBox="93.6 0 24 47" enable-background="new 93.6 0 24 47" xml:space="preserve">
<path fill="#23BDEA" d="M116.9,24.9c-0.5-0.6-1.1-1.1-1.9-1.3c-0.7-0.2-1.5-0.2-2.3,0c-0.7,0.3-1.4,0.7-1.8,1.4h-1.7
	c0-3.3-1-6.3-2.9-8.8l2.8-2.8c1.2,0.2,2.4-0.1,3.3-1c1.4-1.4,1.4-3.8,0-5.2c-1.4-1.4-3.8-1.4-5.2,0c-0.9,0.9-1.2,2.1-1,3.3l-2.8,2.8
	c-1.9-1.4-4.2-2.4-6.7-2.8V7.6c0.6-0.4,1.1-1.1,1.4-1.8c0.3-0.7,0.3-1.5,0-2.3s-0.7-1.4-1.3-1.8C96.1,1.2,95.3,1,94.6,1
	c-0.3,0-0.7,0.1-1,0.1v18.5c0.6,0.6,1,1.4,1,2.3s-0.4,1.7-1,2.3v15.4c0.3,0,0.7,0,1,0h0.4c-0.3,0.5-0.4,1.2-0.4,1.8
	c0.2,2,1.9,3.5,3.9,3.4s3.5-1.9,3.4-3.9c-0.1-1-0.6-2-1.4-2.6c1-0.4,1.9-1,2.8-1.7l4.9,4.9c-0.2,1.2,0.1,2.4,1,3.3
	c1.5,1.4,3.8,1.4,5.2,0c1.5-1.4,1.4-3.8,0-5.2c-0.9-0.9-2.1-1.2-3.3-1l-4.9-4.9c1-1.4,1.8-2.9,2.3-4.6h2.3c0.4,0.6,1.1,1.1,1.8,1.4
	c0.7,0.3,1.5,0.3,2.3,0c0.7-0.2,1.4-0.7,1.9-1.3c0.5-0.6,0.7-1.4,0.7-2.2C117.6,26.3,117.3,25.6,116.9,24.9z M98.7,31.3
	c-1.1,0-2.1-0.9-2.1-2.1c0-1.1,0.9-2.1,2.1-2.1s2.1,0.9,2.1,2.1C100.8,30.3,99.9,31.3,98.7,31.3z"/>
</svg>
