<?xml version="1.0" encoding="utf-8"?>
<!-- Generator: Adobe Illustrator 18.0.0, SVG Export Plug-In . SVG Version: 6.00 Build 0)  -->
<!DOCTYPE svg PUBLIC "-//W3C//DTD SVG 1.1//EN" "http://www.w3.org/Graphics/SVG/1.1/DTD/svg11.dtd">
<svg version="1.1" id="Capa_1" xmlns="http://www.w3.org/2000/svg" xmlns:xlink="http://www.w3.org/1999/xlink" x="0px" y="0px"
	 viewBox="0 0 46 47" enable-background="new 0 0 46 47" xml:space="preserve">
<path fill="#23BDEA" d="M39.4,28.2c0.4,0.6,1.1,1.1,1.8,1.4c0.7,0.3,1.5,0.3,2.3,0c0.7-0.2,1.4-0.7,1.9-1.3c0.5-0.6,0.7-1.4,0.7-2.2
	c0-0.8-0.2-1.5-0.7-2.2c-0.5-0.6-1.1-1.1-1.9-1.3c-0.7-0.2-1.5-0.2-2.3,0c-0.7,0.3-1.4,0.7-1.8,1.4h-1.7c0-3.3-1-6.3-2.9-8.8
	l2.8-2.8c1.2,0.2,2.4-0.1,3.3-1c1.4-1.4,1.4-3.8,0-5.2c-1.4-1.4-3.8-1.4-5.2,0c-0.9,0.9-1.2,2.1-1,3.3l-2.8,2.8
	c-1.9-1.4-4.2-2.4-6.7-2.8V6.6c0.6-0.4,1.1-1.1,1.4-1.8c0.3-0.7,0.3-1.5,0-2.3c-0.2-0.7-0.7-1.4-1.3-1.8C24.5,0.2,23.8,0,23,0
	c-0.8,0-1.5,0.2-2.2,0.7c-0.6,0.5-1.1,1.1-1.3,1.8c-0.2,0.7-0.2,1.5,0,2.3c0.3,0.7,0.7,1.4,1.4,1.8v2.9c-1.9,0.3-3.6,0.9-5.2,1.8
	L13.4,8c0.4-1.1,0.3-2.3-0.4-3.3c-0.3-0.4-0.6-0.7-1-1s-0.9-0.4-1.3-0.5c-0.5-0.1-1-0.1-1.4,0C8.7,3.3,8.2,3.5,7.8,3.8
	C6.2,5,5.8,7.2,6.9,8.9c0.7,1,1.8,1.6,3,1.6l2.5,3.5c-0.9,0.9-1.6,1.9-2.2,3c-0.7-0.3-1.4-0.3-2.1-0.2c-0.7,0.1-1.3,0.5-1.8,1
	c-1.4,1.5-1.4,3.8,0,5.2c0.6,0.6,1.3,0.9,2.1,1c0,1.1,0.1,2.2,0.4,3.3L6,28c-0.9-0.7-2.1-1-3.3-0.7C1.8,27.5,1,28.2,0.5,29
	c-0.5,0.8-0.6,1.8-0.4,2.8C0.4,32.7,1,33.5,1.8,34c0.8,0.5,1.8,0.6,2.8,0.4C5.8,34,6.7,33.1,7.1,32l3.2-0.9c0.9,1.7,2.2,3.1,3.7,4.3
	l-2.3,4.2c-1.2,0.2-2.2,0.8-2.8,1.9C8.6,42,8.4,42.5,8.4,43c0,0.5,0,1,0.1,1.4c0.1,0.5,0.4,0.9,0.7,1.3c0.3,0.4,0.7,0.7,1.1,0.9
	c0.4,0.2,0.9,0.4,1.4,0.4c0.5,0,1,0,1.4-0.1c0.5-0.1,0.9-0.4,1.3-0.7c0.4-0.3,0.7-0.7,0.9-1.1c0.6-1.1,0.6-2.3,0-3.4l2.2-4.1
	c1.7,0.7,3.5,1,5.5,1h0.4c-0.3,0.5-0.4,1.2-0.4,1.8c0.2,2,1.9,3.5,3.9,3.4c2-0.1,3.5-1.9,3.4-3.9c-0.1-1-0.6-2-1.4-2.6
	c1-0.4,1.9-1,2.8-1.7l4.9,4.9c-0.2,1.2,0.1,2.4,1,3.3c1.5,1.4,3.8,1.4,5.2,0c1.5-1.4,1.4-3.8,0-5.2c-0.9-0.9-2.1-1.2-3.3-1l-4.9-4.9
	c1-1.4,1.8-2.9,2.3-4.6H39.4z M19.9,24c-1.7,0-3.1-1.4-3.1-3.1c0-1.7,1.4-3.1,3.1-3.1s3.1,1.4,3.1,3.1C23,22.6,21.6,24,19.9,24z
	 M27.2,30.3c-1.1,0-2.1-0.9-2.1-2.1c0-1.1,0.9-2.1,2.1-2.1s2.1,0.9,2.1,2.1C29.3,29.3,28.3,30.3,27.2,30.3z"/>
</svg>
