<svg width="35" height="70" viewBox="0 0 35 70" fill="none" xmlns="http://www.w3.org/2000/svg">
<path d="M19.379 1.89161C18.4737 0.503937 16.6149 0.112879 15.2272 1.01816C13.8395 1.92344 13.4485 3.78224 14.3538 5.16991L19.379 1.89161ZM8.77242 61.1223C7.9383 62.5539 8.42264 64.3906 9.85422 65.2247C11.2858 66.0588 13.1225 65.5744 13.9566 64.1429L8.77242 61.1223ZM6.57919 42.47C6.24039 40.8482 4.65098 39.8081 3.02913 40.1469C1.40729 40.4857 0.367171 42.0751 0.705967 43.6969L6.57919 42.47ZM8.43247 66.0131L5.49586 66.6265C5.65894 67.4072 6.12616 68.0908 6.79429 68.5263C7.46242 68.9618 8.27646 69.1134 9.05655 68.9475L8.43247 66.0131ZM32.5651 63.9477C34.1857 63.603 35.22 62.0099 34.8753 60.3892C34.5307 58.7686 32.9375 57.7343 31.3169 58.079L32.5651 63.9477ZM14.3538 5.16991C18.7809 11.9562 24.8747 33.4862 8.77242 61.1223L13.9566 64.1429C31.1112 34.7007 25.1409 10.7239 19.379 1.89161L14.3538 5.16991ZM0.705967 43.6969L5.49586 66.6265L11.3691 65.3997L6.57919 42.47L0.705967 43.6969ZM9.05655 68.9475L32.5651 63.9477L31.3169 58.079L7.80839 63.0787L9.05655 68.9475Z" fill="#F1F1F1"/>
</svg>
