<svg width="38" height="102" viewBox="0 0 38 102" fill="none" xmlns="http://www.w3.org/2000/svg">
<path d="M29.3827 5.77153C30.4539 4.50749 30.2975 2.61444 29.0335 1.54329C27.7694 0.472133 25.8764 0.628495 24.8052 1.89253L29.3827 5.77153ZM19.984 95.6568C20.4938 97.2333 22.1851 98.0979 23.7616 97.588C25.338 97.0782 26.2027 95.3869 25.6928 93.8104L19.984 95.6568ZM37.2876 78.5043C37.9642 76.9919 37.2867 75.2174 35.7743 74.5407C34.2619 73.8641 32.4874 74.5416 31.8107 76.054L37.2876 78.5043ZM24.9828 98.6613L23.7478 101.395C24.4746 101.724 25.3022 101.749 26.0478 101.466C26.7934 101.183 27.3956 100.614 27.7213 99.8865L24.9828 98.6613ZM4.31491 86.0326C2.80498 85.3505 1.02798 86.0215 0.345866 87.5315C-0.336249 89.0414 0.334827 90.8184 1.84476 91.5005L4.31491 86.0326ZM24.8052 1.89253C15.8428 12.4688 3.67299 45.226 19.984 95.6568L25.6928 93.8104C9.83838 44.7911 22.1059 14.3587 29.3827 5.77153L24.8052 1.89253ZM31.8107 76.054L22.2444 97.4361L27.7213 99.8865L37.2876 78.5043L31.8107 76.054ZM26.2179 95.9273L4.31491 86.0326L1.84476 91.5005L23.7478 101.395L26.2179 95.9273Z" fill="#F1F1F1"/>
</svg>
