<?xml version="1.0" encoding="utf-8"?>
<!-- Generator: Adobe Illustrator 18.0.0, SVG Export Plug-In . SVG Version: 6.00 Build 0)  -->
<!DOCTYPE svg PUBLIC "-//W3C//DTD SVG 1.0//EN" "http://www.w3.org/TR/2001/REC-SVG-20010904/DTD/svg10.dtd">
<svg version="1.0" id="Capa_1" xmlns="http://www.w3.org/2000/svg" xmlns:xlink="http://www.w3.org/1999/xlink" x="0px" y="0px"
	 viewBox="0 0 97.9 110" enable-background="new 0 0 97.9 110" xml:space="preserve">
<path fill="#F1F1F1" d="M49.4,3.5c0.1-0.6,1-0.7,1.1,0c1.6,9.9,4.3,19.3,9.4,28c7,12.1,17.1,20,31.2,22.2c0.6,0.1,1.2,0.3,1.9,0.5
	c-15.4,2.1-26.3,10.4-33.6,23.7c-4.7,8.6-7.4,17.8-8.9,27.3c-0.1,0.6-1,0.6-1.1,0c-1.4-11.7-4.6-23-11.7-32.9
	C30,61.7,19.7,55.8,6.9,54.3c-0.5-0.1-1-0.2-1.9-0.4C31.2,47.7,46.6,30.1,49.4,3.5z"/>
</svg>
